# xmcd CD database file
#
# Track frame offsets:
#	150
#	88724
#	125249
#	138224
#	150448
#	157123
#	228673
#	232123
#	281622
#
# Disc length: 3984 seconds
#
# Revision: 0
# Processed by: cddbd v1.5.2PL0 Copyright (c) Steve Scherf et al.
# Submitted via: CDex 1.70beta2
#
DISCID=7b0f8e09
DTITLE=Anima Mundi - Segundo Puente
DYEAR=2007
DGENRE=Jazz
TTITLE0=Empieza a Moverse - It Beguins to Move
TTITLE1=	Carrera de Caracoles - Snails Race
TTITLE2=Hamaca al Viento - Swing on the Wind
TTITLE3=Era Asi? - Was it Like That?
TTITLE4=El Crude Del Rio - The River Crossing
TTITLE5=En la Joyeria - In the Jewelry Shop
TTITLE6=Titanes - Titans
TTITLE7=Gran Pregunta - Big Question
TTITLE8=Cortinas de Mimbre - Wicker Curtains
EXTD=YEAR: 2007
EXTT0=
EXTT1=
EXTT2=
EXTT3=
EXTT4=
EXTT5=
EXTT6=
EXTT7=
EXTT8=
PLAYORDER=
